<svg width="20" height="20" viewBox="0 0 20 20" fill="none" xmlns="http://www.w3.org/2000/svg">
<g clip-path="url(#clip0_4035_264)">
<rect width="20" height="20" rx="5" fill="black"/>
<path d="M5.64919 17H2L6.73983 3H11.2602L16 17H12.3508L9.05145 6.52734H8.9417L5.64919 17Z" fill="white"/>
<g clip-path="url(#clip1_4035_264)">
<path d="M6 13.217C6 12.9704 6.21825 12.781 6.46231 12.8157L20.1408 14.7608C20.6337 14.8308 21 15.2529 21 15.7508V17.5688C21 18.2639 20.3083 18.7469 19.6557 18.5076L6.26573 13.5974C6.10612 13.5389 6 13.387 6 13.217Z" fill="url(#paint0_linear_4035_264)"/>
<path d="M6 12.1883C6 11.9383 6.1886 11.7285 6.43724 11.702L19.8939 10.2664C20.4848 10.2034 21 10.6665 21 11.2608V13.1502C21 13.7454 20.4832 14.2089 19.8914 14.1442L6.43602 12.6746C6.18791 12.6475 6 12.4379 6 12.1883Z" fill="url(#paint1_linear_4035_264)"/>
<path d="M6 11.2297C6 11.091 6.08446 10.9662 6.21327 10.9147L18.8058 5.87769C19.5409 5.58366 19.9084 5.43664 20.2035 5.49795C20.4615 5.55156 20.6879 5.70486 20.8335 5.92451C21 6.17568 21 6.57154 21 7.36325V7.9503C21 8.43764 21 8.68131 20.9108 8.87809C20.8322 9.05153 20.7057 9.19891 20.5462 9.30292C20.3652 9.42093 20.1244 9.45788 19.6427 9.53179L6.39073 11.5651C6.18525 11.5966 6 11.4376 6 11.2297Z" fill="url(#paint2_linear_4035_264)"/>
</g>
<path d="M-2 1L5 12L5.5 11L10 9.5V15L5.5 13.5L5 12L-2 15V1Z" fill="url(#paint3_linear_4035_264)"/>
</g>
<defs>
<linearGradient id="paint0_linear_4035_264" x1="6" y1="16.427" x2="21" y2="16.427" gradientUnits="userSpaceOnUse">
<stop stop-color="#0051FF" stop-opacity="0"/>
<stop offset="0.0769231" stop-color="#0051FF"/>
<stop offset="0.759615" stop-color="#3522E0"/>
<stop offset="1" stop-color="#3522E0" stop-opacity="0.3"/>
</linearGradient>
<linearGradient id="paint1_linear_4035_264" x1="6" y1="12.2069" x2="21" y2="12.2069" gradientUnits="userSpaceOnUse">
<stop stop-color="#E82922" stop-opacity="0"/>
<stop offset="0.0721154" stop-color="#E82922"/>
<stop offset="0.764423" stop-color="#9E1F1F"/>
<stop offset="1" stop-color="#9E1F1F" stop-opacity="0.3"/>
</linearGradient>
<linearGradient id="paint2_linear_4035_264" x1="6" y1="8.19118" x2="21" y2="8.19118" gradientUnits="userSpaceOnUse">
<stop stop-color="#FFAA00" stop-opacity="0"/>
<stop offset="0.115385" stop-color="#FFB700"/>
<stop offset="0.730769" stop-color="#FF9500"/>
<stop offset="1" stop-color="#FF7B00" stop-opacity="0.3"/>
</linearGradient>
<linearGradient id="paint3_linear_4035_264" x1="-2.5" y1="9.9375" x2="10.6078" y2="12.5249" gradientUnits="userSpaceOnUse">
<stop offset="0.119128" stop-color="white" stop-opacity="0"/>
<stop offset="0.459251" stop-color="white"/>
<stop offset="0.775267" stop-color="white"/>
<stop offset="0.90882" stop-color="white" stop-opacity="0"/>
</linearGradient>
<clipPath id="clip0_4035_264">
<rect width="20" height="20" rx="5" fill="white"/>
</clipPath>
<clipPath id="clip1_4035_264">
<rect width="15" height="14" fill="white" transform="translate(6 5)"/>
</clipPath>
</defs>
</svg>
