<svg width="16" height="16" viewBox="0 0 16 16" fill="none" xmlns="http://www.w3.org/2000/svg">
<g clip-path="url(#clip0_4034_250)">
<rect width="16" height="16" rx="4" fill="black"/>
<path d="M4.86722 13H2L5.72416 2H9.27585L13 13H10.1328L7.54042 4.77148H7.45419L4.86722 13Z" fill="white"/>
<g clip-path="url(#clip1_4034_250)">
<path d="M6 10.2025C6 9.96169 6.21022 9.77491 6.44933 9.80324L23.1177 11.7784C23.6209 11.838 24 12.2647 24 12.7714V14.6493C24 15.3213 23.3504 15.8021 22.7078 15.6057L6.28453 10.587C6.11547 10.5353 6 10.3793 6 10.2025Z" fill="url(#paint0_linear_4034_250)"/>
<path d="M6 9.18825C6 8.93939 6.19003 8.73173 6.4379 8.70969L22.9115 7.24521C23.4964 7.19321 24 7.65404 24 8.24128V10.1702C24 10.7583 23.495 11.2194 22.9094 11.1661L6.4369 9.66672C6.18945 9.6442 6 9.43672 6 9.18825Z" fill="url(#paint1_linear_4034_250)"/>
<path d="M6 8.24261C6 8.09773 6.09271 7.9691 6.23016 7.92328L21.894 2.70199C22.6051 2.46498 22.9606 2.34648 23.2435 2.41753C23.4912 2.47973 23.7058 2.63435 23.8431 2.84968C24 3.09566 24 3.4704 24 4.21988V4.91508C24 5.41385 24 5.66324 23.9077 5.86292C23.8263 6.03886 23.6956 6.18736 23.5314 6.29037C23.345 6.40727 23.0977 6.4389 22.6029 6.50216L6.3793 8.5765C6.17809 8.60223 6 8.44546 6 8.24261Z" fill="url(#paint2_linear_4034_250)"/>
</g>
<path d="M-2 0.5L4.18182 9.45455L4.5974 8.39394L7.5 7.5L8 11L4.5974 10L4.18182 9.45455L-2 10.5V0.5Z" fill="url(#paint3_linear_4034_250)"/>
</g>
<defs>
<linearGradient id="paint0_linear_4034_250" x1="6" y1="13.427" x2="24" y2="13.427" gradientUnits="userSpaceOnUse">
<stop stop-color="#0051FF" stop-opacity="0"/>
<stop offset="0.0769231" stop-color="#0051FF"/>
<stop offset="0.759615" stop-color="#3522E0"/>
<stop offset="1" stop-color="#3522E0" stop-opacity="0.3"/>
</linearGradient>
<linearGradient id="paint1_linear_4034_250" x1="6" y1="9.20689" x2="24" y2="9.20689" gradientUnits="userSpaceOnUse">
<stop stop-color="#E82922" stop-opacity="0"/>
<stop offset="0.0721154" stop-color="#E82922"/>
<stop offset="0.764423" stop-color="#9E1F1F"/>
<stop offset="1" stop-color="#9E1F1F" stop-opacity="0.3"/>
</linearGradient>
<linearGradient id="paint2_linear_4034_250" x1="6" y1="5.19118" x2="24" y2="5.19118" gradientUnits="userSpaceOnUse">
<stop stop-color="#FFAA00" stop-opacity="0"/>
<stop offset="0.115385" stop-color="#FFB700"/>
<stop offset="0.730769" stop-color="#FF9500"/>
<stop offset="1" stop-color="#FF7B00" stop-opacity="0.3"/>
</linearGradient>
<linearGradient id="paint3_linear_4034_250" x1="-2" y1="7.5" x2="8.4862" y2="9.56991" gradientUnits="userSpaceOnUse">
<stop offset="0.119128" stop-color="white" stop-opacity="0"/>
<stop offset="0.459251" stop-color="white"/>
<stop offset="0.775267" stop-color="white"/>
<stop offset="0.90882" stop-color="white" stop-opacity="0"/>
</linearGradient>
<clipPath id="clip0_4034_250">
<rect width="16" height="16" rx="4" fill="white"/>
</clipPath>
<clipPath id="clip1_4034_250">
<rect width="18" height="14" fill="white" transform="translate(6 2)"/>
</clipPath>
</defs>
</svg>
