<svg width="256" height="256" viewBox="0 0 256 256" fill="none" xmlns="http://www.w3.org/2000/svg">
<g clip-path="url(#clip0_4033_209)">
<rect width="256" height="256" rx="64" fill="black"/>
<path d="M63.5495 211.367H24L84.2618 43.3672H131.823L192 211.367H152.451L108.725 81.7578H107.361L63.5495 211.367Z" fill="white"/>
<g clip-path="url(#clip1_4033_209)">
<path d="M88 167.509C88 166.905 88.5327 166.438 89.1321 166.518L255.132 188.647C255.629 188.713 256 189.137 256 189.638V230.591C256 231.279 255.321 231.762 254.671 231.536L88.6712 173.734C88.2693 173.594 88 173.215 88 172.789V167.509Z" fill="url(#paint0_linear_4033_209)"/>
<path d="M88 156.754C88 156.24 88.3893 155.81 88.9005 155.759L254.9 139.157C255.489 139.098 256 139.56 256 140.152V181.167C256 181.759 255.488 182.222 254.898 182.161L88.8981 165.163C88.388 165.111 88 164.681 88 164.168V156.754Z" fill="url(#paint1_linear_4033_209)"/>
<path d="M88 147.618C88 147.215 88 147.014 88.0662 146.841C88.1247 146.688 88.2197 146.552 88.343 146.445C88.4825 146.323 88.6716 146.254 89.05 146.116L253.85 85.7871C254.573 85.5223 254.935 85.39 255.224 85.4563C255.477 85.5143 255.697 85.6684 255.838 85.8859C256 86.1345 256 86.5195 256 87.2896V129.011C256 129.502 256 129.748 255.91 129.946C255.83 130.12 255.702 130.268 255.541 130.372C255.358 130.489 255.114 130.524 254.628 130.594L89.8278 154.3C89.1974 154.39 88.8822 154.436 88.6372 154.34C88.4222 154.257 88.2427 154.101 88.1293 153.9C88 153.671 88 153.353 88 152.716V147.618Z" fill="url(#paint2_linear_4033_209)"/>
</g>
<path d="M-14.5 57L52.5 160.5L73 152.5L123 133.697V185.709L88.5 173.5L52.5 160.5L-14.5 177.5V57Z" fill="url(#paint3_linear_4033_209)"/>
</g>
<defs>
<linearGradient id="paint0_linear_4033_209" x1="88" y1="204.976" x2="256" y2="204.976" gradientUnits="userSpaceOnUse">
<stop stop-color="#0051FF" stop-opacity="0"/>
<stop offset="0.0769231" stop-color="#0051FF"/>
<stop offset="0.759615" stop-color="#3522E0"/>
<stop offset="1" stop-color="#3522E0" stop-opacity="0.3"/>
</linearGradient>
<linearGradient id="paint1_linear_4033_209" x1="88" y1="160.661" x2="256" y2="160.661" gradientUnits="userSpaceOnUse">
<stop stop-color="#E82922" stop-opacity="0"/>
<stop offset="0.0721154" stop-color="#E82922"/>
<stop offset="0.764423" stop-color="#9E1F1F"/>
<stop offset="1" stop-color="#9E1F1F" stop-opacity="0.3"/>
</linearGradient>
<linearGradient id="paint2_linear_4033_209" x1="88" y1="118.507" x2="256" y2="118.507" gradientUnits="userSpaceOnUse">
<stop stop-color="#FFAA00" stop-opacity="0"/>
<stop offset="0.115385" stop-color="#FFB700"/>
<stop offset="0.730769" stop-color="#FF9500"/>
<stop offset="1" stop-color="#FF7B00" stop-opacity="0.3"/>
</linearGradient>
<linearGradient id="paint3_linear_4033_209" x1="-2.99997" y1="154.5" x2="111.91" y2="161.486" gradientUnits="userSpaceOnUse">
<stop stop-color="white" stop-opacity="0"/>
<stop offset="0.2681" stop-color="white"/>
<stop offset="0.814867" stop-color="white"/>
<stop offset="1" stop-color="white" stop-opacity="0"/>
</linearGradient>
<clipPath id="clip0_4033_209">
<rect width="256" height="256" rx="64" fill="white"/>
</clipPath>
<clipPath id="clip1_4033_209">
<rect width="168" height="147" fill="white" transform="translate(88 85)"/>
</clipPath>
</defs>
</svg>
