<svg xmlns="http://www.w3.org/2000/svg" viewBox="-2.9 0 112.2 112.2">
 <defs>
  <linearGradient id="sb1" gradientUnits="userSpaceOnUse" x1="-0.8987" y1="97.9209" x2="-2.3259" y2="104.7493" gradientTransform="matrix(3.6206 0 0 -5.9927 15.8173 680.8324)">
   <stop offset="0.1444" style="stop-color:#F2E913"/><stop offset="0.3037" style="stop-color:#E7E518"/><stop offset="0.5823" style="stop-color:#CADB26"/><stop offset="0.891" style="stop-color:#A3CD39"/>
  </linearGradient>
  <linearGradient id="sb2" gradientUnits="userSpaceOnUse" x1="-2.5049" y1="108.3128" x2="3.5794" y2="109.7136" gradientTransform="matrix(5.9927 0 0 -3.6206 32.3753 407.6483)">
   <stop offset="0.0592" style="stop-color:#0FA8E0"/><stop offset="0.5385" style="stop-color:#0099F9"/><stop offset="0.9234" style="stop-color:#0291EB"/>
  </linearGradient>
  <linearGradient id="sb3" gradientUnits="userSpaceOnUse" x1="1.9837" y1="88.0789" x2="8.864" y2="89.0184" gradientTransform="matrix(5.9927 0 0 -3.6206 37.5565 419.8523)">
   <stop offset="0.1226" style="stop-color:#A3CD39"/><stop offset="0.2846" style="stop-color:#86C339"/><stop offset="0.8693" style="stop-color:#21A038"/>
  </linearGradient>
  <linearGradient id="sb4" gradientUnits="userSpaceOnUse" x1="3.7112" y1="109.7955" x2="10.7923" y2="108.5215" gradientTransform="matrix(4.9783 0 0 -2.9027 31.8759 327.2303)">
   <stop offset="0.0566" style="stop-color:#0291EB"/><stop offset="0.79" style="stop-color:#0C8ACB"/>
  </linearGradient>
  <linearGradient id="sb5" gradientUnits="userSpaceOnUse" x1="-2.7889" y1="90.8435" x2="3.7505" y2="89.245" gradientTransform="matrix(5.8679 0 0 -3.8391 31.3453 444.1041)">
   <stop offset="0.1324" style="stop-color:#F2E913"/><stop offset="0.2977" style="stop-color:#EBE716"/><stop offset="0.5306" style="stop-color:#D9E01F"/><stop offset="0.8023" style="stop-color:#BBD62D"/><stop offset="0.9829" style="stop-color:#A3CD39"/>
  </linearGradient>
  <linearGradient id="sb6" gradientUnits="userSpaceOnUse" x1="-2.538" y1="102.8515" x2="-0.8206" y2="109.68" gradientTransform="matrix(3.8391 0 0 -5.8679 17.1282 661.3873)">
   <stop offset="0.0698" style="stop-color:#A3CD39"/><stop offset="0.2599" style="stop-color:#81C55F"/><stop offset="0.9216" style="stop-color:#0FA8E0"/>
  </linearGradient>
 </defs>
 <path fill="#21A038" d="M97.5,21.8c2.7,3.4,4.9,7.2,6.7,11.2L53.2,70.7L31.8,57.2V41.1l21.3,13.4L97.5,21.8z"/>
 <path fill="url(#sb1)" d="M10,56.1c0-0.8,0-1.4,0.1-2.2l-12.9-0.7c0,0.9-0.1,1.9-0.1,2.8c0,15.5,6.3,29.5,16.5,39.7l9.2-9.2C14.9,78.8,10,68,10,56.1z"/>
 <path fill="url(#sb2)" d="M53.1,13c0.8,0,1.4,0,2.2,0.1L56,0.2c-0.9,0-1.9-0.1-2.8-0.1c-15.5,0-29.5,6.3-39.7,16.5l9.2,9.2C30.5,17.9,41.3,13,53.1,13z"/>
 <path fill="url(#sb3)" d="M53.1,99.2c-0.8,0-1.4,0-2.2-0.1L50.2,112c0.9,0,1.9,0.1,2.8,0.1c15.5,0,29.5-6.3,39.7-16.5l-9.2-9.2C75.8,94.4,65.1,99.2,53.1,99.2z"/>
 <path fill="url(#sb4)" d="M77.4,20.5l10.9-8.1C78.8,4.7,66.5,0,53.1,0l0,0v12.9C62.2,13,70.6,15.8,77.4,20.5z"/>
 <path fill="#21A038" d="M109.2,56.1c0-3.4-0.3-6.7-0.9-10.1l-12,9c0,0.3,0,0.8,0,1.1c0,12.7-5.5,24.1-14.3,31.9l8.7,9.6C102.1,87.5,109.2,72.6,109.2,56.1z"/>
 <path fill="url(#sb5)" d="M53.1,99.2c-12.7,0-24.1-5.5-31.9-14.3l-9.6,8.7c10.3,11.4,25.1,18.5,41.5,18.5V99.2L53.1,99.2z"/>
 <path fill="url(#sb6)" d="M24.3,24.2l-8.7-9.6C4.2,24.8-2.9,39.6-2.9,56.1H10C10,43.5,15.5,32,24.3,24.2z"/>
</svg>
